<svg xmlns="http://www.w3.org/2000/svg" viewBox="0 0 360 170" role="img" aria-label="MATCH_A">
  <rect width="360" height="170" fill="none"/>
  <g fill="#000">
    <path d="M141 21c2.5-3.1 6.5-4.7 10.4-4.1l24.4 3.8c4.5.7 8.2 3.9 9.6 8.2l8.8 27.3c2.6 8.1 13.1 10.2 18.6 3.7l18-21.2c2.9-3.4 7.4-4.9 11.8-3.9l27.2 6.4c6.6 1.5 10.7 8.1 9.1 14.7l-20.8 85.5c-1.6 6.4-8 10.3-14.4 8.9l-34.5-7.8c14.6-9.4 24.2-25.7 24.2-44.3 0-29.1-23.6-52.7-52.7-52.7S128 69.1 128 98.2c0 18.3 9.4 34.5 23.6 43.9l-42.2-7.6c-6-1.1-10.3-6.5-10-12.6l4.2-91.4c.4-7 6.7-12.2 13.6-11.2l23.8 3.7Z"/>
    <rect x="124" y="35" width="53" height="9" transform="rotate(9 150.5 39.5)" fill="#fff"/>
    <circle cx="180.7" cy="98.2" r="38.8" fill="#fff"/>
    <circle cx="180.7" cy="98.2" r="29.5"/>
    <path d="M184.8 72.3c13.1 2 23.5 12.4 25.6 25.5h-10.5c-1.9-7.4-7.7-13.2-15.1-15.1V72.3Z" fill="#fff"/>
  </g>
  <text x="180" y="160" text-anchor="middle" fill="#000" font-family="Arial, Helvetica, sans-serif" font-size="52" font-weight="900" letter-spacing="1">MATCH_A</text>
</svg>
